<svg width="133" height="125" viewBox="0 0 133 125" fill="none" xmlns="http://www.w3.org/2000/svg">
<rect width="133" height="125" rx="62.5" fill="#FAF9F6"/>
<path d="M39.8 92.5C39.1333 92.5 38.8 92.1667 38.8 91.5V48.1C38.8 47.4867 39.0267 46.9533 39.48 46.5L46.12 39.82C46.5733 39.3933 47.1067 39.18 47.72 39.18H56.88C57.4933 39.18 58.0267 39.3933 58.48 39.82L65.2 46.58H67.08L73.8 39.82C74.2533 39.3933 74.7867 39.18 75.4 39.18H84.52C85.16 39.18 85.6933 39.3933 86.12 39.82L92.8 46.5C93.2533 46.9533 93.48 47.4867 93.48 48.1V91.5C93.48 92.1667 93.1467 92.5 92.48 92.5H81.12C80.4533 92.5 80.12 92.1667 80.12 91.5V49.82H72.8V91.5C72.8 92.1667 72.4667 92.5 71.8 92.5H60.48C59.8133 92.5 59.48 92.1667 59.48 91.5V49.82H52.12V91.5C52.12 92.1667 51.7867 92.5 51.12 92.5H39.8Z" fill="#FF7417"/>
</svg>
